#!OML:ASF H:\Pregnant\Project 1\Capture day 1\Session 1\femalepreg.ASF
:FULLY-SPECIFIED
:DEGREES
1191
root 11.8951 7.93294 18.9647 -120.589 -13.5596 180.954
lowerback 17.7813 2.3117 -4.00804
upperback 6.1346 1.07325 -6.30141
thorax -3.34404 0.184969 -4.6386
lowerneck -15.377 8.84441 9.23183
upperneck 35.8509 5.0024 5.38069
head 15.4357 3.52441 1.41518
rclavicle 7.35503e-015 7.82715e-014
rhumerus 28.1938 -4.95518 -85.4747
rradius 28.7939
rwrist 5.96809
rhand -65.7994 459.569
rfingers 7.12502
rthumb -37.6535 -234.538
lclavicle 7.35503e-015 7.82715e-014
lhumerus 27.3276 -22.5182 62.1641
lradius 28.2385
lwrist -3.91309
lhand -47.9133 -599.595
lfingers 7.12502
lthumb -20.5851 91.4765
rfemur -75.5052 7.59655 17.1754
rtibia 125.18
rfoot -10.2375 21.0391
rtoes -15.9339
lfemur -80.7942 6.10866 -5.34382
ltibia 123.425
lfoot -332.352 -23.1934
ltoes -40.8738
1192
root 11.9191 7.92767 18.9858 -120.591 -13.8563 181.039
lowerback 17.6853 2.31355 -3.9248
upperback 6.12847 1.10475 -6.30274
thorax -3.29635 0.203865 -4.69059
lowerneck -15.2915 8.92782 9.30159
upperneck 35.8441 5.07519 5.45426
head 15.4175 3.57166 1.44417
rclavicle -6.59965e-014 -8.4235e-014
rhumerus 28.1909 -5.11857 -85.497
rradius 28.8159
rwrist 5.78925
rhand -65.8565 459.001
rfingers 7.12502
rthumb -37.7074 -235.121
lclavicle -6.59965e-014 -8.4235e-014
lhumerus 27.5281 -22.6013 61.9955
lradius 28.3663
lwrist -3.97193
lhand -47.9226 -599.816
lfingers 7.12502
lthumb -20.5941 91.2564
rfemur -75.7442 7.90865 16.8837
rtibia 125.463
rfoot -11.1842 21.4727
rtoes -16.941
lfemur -81.3009 6.69435 -5.2937
ltibia 124.018
lfoot -332.599 -23.7069
ltoes -41.1897
1193
root 11.9428 7.92224 19.0075 -120.6 -14.1428 181.126
lowerback 17.6015 2.31374 -3.85322
upperback 6.12291 1.12991 -6.30471
thorax -3.25504 0.219218 -4.73573
lowerneck -15.2144 9.01088 9.36751
upperneck 35.8409 5.14742 5.52712
head 15.4027 3.61806 1.47382
rclavicle -3.47873e-014 5.36719e-014
rhumerus 28.196 -5.27234 -85.5285
rradius 28.8421
rwrist 5.61286
rhand -65.8999 458.208
rfingers 7.12502
rthumb -37.7485 -235.925
lclavicle -3.47873e-014 5.36719e-014
lhumerus 27.7373 -22.677 61.8044
lradius 28.4981
lwrist -4.00479
lhand -47.9349 -600.037
lfingers 7.12502
lthumb -20.6059 91.037
rfemur -75.9852 8.21346 16.6158
rtibia 125.729
rfoot -12.0801 21.8491
rtoes -17.8678
lfemur -81.8035 7.27997 -5.26835
ltibia 124.594
lfoot -332.837 -24.2351
ltoes -41.5193
1194
root 11.9663 7.91758 19.028 -120.663 -14.4171 181.217
lowerback 17.5805 2.31834 -3.80014
upperback 6.12904 1.1494 -6.30469
thorax -3.23502 0.23022 -4.76904
lowerneck -15.147 9.09353 9.42748
upperneck 35.8395 5.21969 5.60018
head 15.3907 3.66373 1.50495
rclavicle 1.27222e-014 -4.89507e-014
rhumerus 28.2109 -5.4142 -85.5678
rradius 28.8734
rwrist 5.43647
rhand -65.9282 457.198
rfingers 7.12502
rthumb -37.7752 -236.942
lclavicle 1.27222e-014 -4.89507e-014
lhumerus 27.9651 -22.7474 61.5832
lradius 28.6296
lwrist -4.00468
lhand -47.95 -600.255
lfingers 7.12502
lthumb -20.6204 90.8206
rfemur -76.1542 8.53429 16.3807
rtibia 125.957
rfoot -12.9134 22.1761
rtoes -18.6518
lfemur -82.221 7.84213 -5.25841
ltibia 125.127
lfoot -333.013 -24.7748
ltoes -41.8534
1195
root 11.9896 7.91437 19.0466 -120.811 -14.6788 181.311
lowerback 17.6559 2.33087 -3.76843
upperback 6.15439 1.16333 -6.30105
thorax -3.24614 0.23618 -4.78827
lowerneck -15.0906 9.17509 9.48186
upperneck 35.8387 5.29162 5.67231
head 15.381 3.70849 1.53699
rclavicle -1.5704e-014 3.70236e-014
rhumerus 28.2364 -5.54271 -85.6112
rradius 28.9104
rwrist 5.25681
rhand -65.9428 456.012
rfingers 7.12502
rthumb -37.7889 -238.131
lclavicle -1.5704e-014 3.70236e-014
lhumerus 28.219 -22.8137 61.3296
lradius 28.7563
lwrist -3.97071
lhand -47.9671 -600.471
lfingers 7.12502
lthumb -20.6368 90.6058
rfemur -76.2023 8.88338 16.1858
rtibia 126.135
rfoot -13.6721 22.4674
rtoes -19.2503
lfemur -82.5028 8.3581 -5.25639
ltibia 125.597
lfoot -333.055 -25.3135
ltoes -42.1794
1196
root 12.0124 7.91275 19.0632 -121.048 -14.9293 181.404
lowerback 17.8366 2.35196 -3.75624
upperback 6.20091 1.17182 -6.29331
thorax -3.29087 0.236995 -4.79433
lowerneck -15.0425 9.25252 9.53266
upperneck 35.8335 5.36148 5.73916
head 15.371 3.75132 1.56714
rclavicle -4.77083e-014 2.39039e-014
rhumerus 28.2718 -5.65719 -85.6533
rradius 28.953
rwrist 5.07052
rhand -65.947 454.714
rfingers 7.12502
rthumb -37.7929 -239.43
lclavicle -4.77083e-014 2.39039e-014
lhumerus 28.5016 -22.8761 61.0485
lradius 28.8748
lwrist -3.907
lhand -47.9852 -600.693
lfingers 7.12502
lthumb -20.6542 90.3862
rfemur -76.1176 9.26015 16.0348
rtibia 126.257
rfoot -14.3473 22.7354
rtoes -19.6425
lfemur -82.6396 8.81243 -5.25989
ltibia 126
lfoot -332.904 -25.8331
ltoes -42.4867
1197
root 12.0347 7.91246 19.0783 -121.365 -15.1703 181.494
lowerback 18.1112 2.38114 -3.75937
upperback 6.26577 1.1764 -6.28185
thorax -3.36575 0.233714 -4.79
lowerneck -14.9999 9.32246 9.58317
upperneck 35.8209 5.42619 5.79648
head 15.3586 3.7908 1.59226
rclavicle -1.15295e-014 -2.33572e-014
rhumerus 28.3136 -5.75808 -85.6849
rradius 29.0016
rwrist 4.87296
rhand -65.9432 453.362
rfingers 7.12502
rthumb -37.7893 -240.782
lclavicle -1.15295e-014 -2.33572e-014
lhumerus 28.8075 -22.9333 60.7555
lradius 28.9836
lwrist -3.82766
lhand -48.0038 -600.929
lfingers 7.12502
lthumb -20.6721 90.1524
rfemur -75.918 9.65284 15.9295
rtibia 126.332
rfoot -14.9403 22.9828
rtoes -19.8392
lfemur -82.6531 9.19905 -5.27272
ltibia 126.338
lfoot -332.538 -26.3147
ltoes -42.7673
1198
root 12.0563 7.91287 19.093 -121.733 -15.4041 181.576
lowerback 18.4502 2.41628 -3.77123
upperback 6.34217 1.17899 -6.26782
thorax -3.46205 0.227991 -4.77973
lowerneck -14.959 9.38184 9.6367
upperneck 35.7989 5.48272 5.84022
head 15.3425 3.82558 1.60935
rclavicle 8.42847e-014 2.13694e-015
rhumerus 28.3565 -5.84923 -85.6995
rradius 29.0569
rwrist 4.6623
rhand -65.9349 452.001
rfingers 7.12502
rthumb -37.7815 -242.141
lclavicle 8.42847e-014 2.13694e-015
lhumerus 29.1263 -22.9829 60.4705
lradius 29.0827
lwrist -3.7506
lhand -48.0219 -601.181
lfingers 7.12502
lthumb -20.6894 270.099
rfemur -75.646 10.0415 15.8693
rtibia 126.37
rfoot -15.4616 23.2019
rtoes -19.8726
lfemur -82.5909 9.52309 -5.30395
ltibia 126.623
lfoot -331.973 -26.7433
ltoes -43.0203
1199
root 12.0773 7.91328 19.1086 -122.123 -15.6328 181.65
lowerback 18.8217 2.45587 -3.78611
upperback 6.4227 1.18267 -6.25216
thorax -3.57038 0.222141 -4.76742
lowerneck -14.9181 9.42898 9.69418
upperneck 35.7688 5.52811 5.87074
head 15.3229 3.85455 1.61784
rclavicle 7.15625e-014 -1.42131e-014
rhumerus 28.3952 -5.93783 -85.6923
rradius 29.12
rwrist 4.43913
rhand -65.9241 450.645
rfingers 7.12502
rthumb -37.7713 -243.494
lclavicle 7.15625e-014 -1.42131e-014
lhumerus 29.4438 -23.0223 60.2164
lradius 29.1738
lwrist -3.69529
lhand -48.0384 -601.454
lfingers 7.12502
lthumb -20.7053 270.369
rfemur -75.3457 10.4071 15.8536
rtibia 126.385
rfoot -15.9285 23.3762
rtoes -19.7898
lfemur -82.5009 9.79626 -5.36374
ltibia 126.87
lfoot -331.263 -27.1126
ltoes -43.2502
1200
root 12.0977 7.91301 19.1259 -122.508 -15.859 181.714
lowerback 19.1929 2.4976 -3.79805
upperback 6.49995 1.18976 -6.23585
thorax -3.6812 0.218121 -4.75699
lowerneck -14.8775 9.46581 9.75544
upperneck 35.737 5.56245 5.89118
head 15.3029 3.87816 1.61944
rclavicle -2.18663e-014 5.36222e-014
rhumerus 28.4247 -6.03393 -85.6655
rradius 29.1923
rwrist 4.20961
rhand -65.9133 270.708
rfingers 7.12502
rthumb -37.7611 -244.844
lclavicle -2.18663e-014 5.36222e-014
lhumerus 29.7471 -23.0503 60.0093
lradius 29.2595
lwrist -3.67576
lhand -48.0537 -601.739
lfingers 7.12502
lthumb -20.72 270.652
rfemur -75.06 10.7333 15.8818
rtibia 126.388
rfoot -16.3591 23.4896
rtoes -19.6368
lfemur -82.4286 10.0359 -5.46048
ltibia 127.092
lfoot -330.487 -27.4242
ltoes -43.4662
1201
root 12.1176 7.91163 19.1455 -122.871 -16.0852 181.771
lowerback 19.544 2.53944 -3.80188
upperback 6.56959 1.20135 -6.21944
thorax -3.7887 0.216999 -4.75161
lowerneck -14.8409 9.49648 9.81788
upperneck 35.7122 5.58785 5.90725
head 15.2874 3.89776 1.61797
rclavicle -2.0276e-014 -6.59965e-014
rhumerus 28.4425 -6.1472 -85.6244
rradius 29.2749
rwrist 3.98133
rhand -65.9037 272.079
rfingers 7.12502
rthumb -37.752 -246.212
lclavicle -2.0276e-014 -6.59965e-014
lhumerus 30.0289 -23.0678 59.8559
lradius 29.3424
lwrist -3.69762
lhand -48.0678 -602.026
lfingers 7.12502
lthumb -20.7335 270.939
rfemur -74.813 11.0101 15.9543
rtibia 126.384
rfoot -16.7698 23.5303
rtoes -19.4603
lfemur -82.4012 10.2533 -5.59701
ltibia 127.295
lfoot -329.707 -27.6868
ltoes -43.6794
1202
root 12.137 7.90897 19.1678 -123.204 -16.3144 181.822
lowerback 19.8665 2.57928 -3.79265
upperback 6.62924 1.21701 -6.20312
thorax -3.89097 0.218866 -4.754
lowerneck -14.8095 9.52543 9.88148
upperneck 35.7005 5.60835 5.92108
head 15.2797 3.91537 1.61544
rclavicle 1.74931e-014 -3.27498e-014
rhumerus 28.4478 -6.28435 -85.5775
rradius 29.368
rwrist 3.76296
rhand -65.8953 273.481
rfingers 7.12502
rthumb -37.7441 -247.613
lclavicle 1.74931e-014 -3.27498e-014
lhumerus 30.2846 -23.0763 59.7543
lradius 29.4257
lwrist -3.75907
lhand -48.0811 -602.305
lfingers 7.12502
lthumb -20.7464 271.216
rfemur -74.6125 11.2351 16.0742
rtibia 126.374
rfoot -17.1689 23.4956
rtoes -19.2925
lfemur -82.4292 10.4556 -5.76858
ltibia 127.483
lfoot -328.97 -27.9138
ltoes -43.8993
1203
root 12.156 7.905 19.1925 -123.508 -16.5496 181.87
lowerback 20.159 2.61515 -3.76585
upperback 6.67815 1.23559 -6.18684
thorax -3.98818 0.223272 -4.76636
lowerneck -14.785 9.55665 9.94494
upperneck 35.7069 5.62751 5.93579
head 15.2823 3.93275 1.61432
rclavicle 6.16232e-014 -6.26172e-015
rhumerus 28.44 -6.44559 -85.5285
rradius 29.4718
rwrist 3.55647
rhand -65.8866 274.923
rfingers 7.12502
rthumb -37.7359 -249.052
lclavicle 6.16232e-014 -6.26172e-015
lhumerus 30.5129 -23.0781 59.6984
lradius 29.5125
lwrist -3.85578
lhand -48.0938 -602.564
lfingers 7.12502
lthumb -20.7586 271.473
rfemur -74.4579 11.4079 16.2442
rtibia 126.355
rfoot -17.5622 23.3882
rtoes -19.1633
lfemur -82.5143 10.644 -5.96568
ltibia 127.659
lfoot -328.298 -28.1153
ltoes -44.1294
1204
root 12.1745 7.89988 19.2196 -123.787 -16.7934 181.917
lowerback 20.4276 2.64586 -3.71783
upperback 6.71706 1.25585 -6.16995
thorax -4.08285 0.229546 -4.79005
lowerneck -14.7632 9.58896 10.0076
upperneck 35.7245 5.64599 5.95071
head 15.2909 3.94991 1.61402
rclavicle -1.82882e-014 6.52014e-014
rhumerus 28.4201 -6.62469 -85.477
rradius 29.5854
rwrist 3.3583
rhand -65.8763 276.388
rfingers 7.12502
rthumb -37.7261 -250.514
lclavicle -1.82882e-014 6.52014e-014
lhumerus 30.7164 -23.077 59.6775
lradius 29.6042
lwrist -3.97788
lhand -48.1056 -602.792
lfingers 7.12502
lthumb -20.7699 271.701
rfemur -74.3394 11.5334 16.468
rtibia 126.322
rfoot -17.9487 23.2147
rtoes -19.0812
lfemur -82.6472 10.8177 -6.17327
ltibia 127.822
lfoot -327.695 -28.3001
ltoes -44.3673
1205
root 12.1924 7.89384 19.2487 -124.051 -17.0472 181.967
lowerback 20.6818 2.67135 -3.64628
upperback 6.7478 1.27729 -6.15163
thorax -4.1779 0.237259 -4.82571
lowerneck -14.7414 9.61915 10.0671
upperneck 35.7441 5.66198 5.96644
head 15.3002 3.96577 1.61421
rclavicle 3.97569e-014 4.8255e-014
rhumerus 28.3888 -6.80842 -85.4145
rradius 29.707
rwrist 3.15613
rhand -65.8627 277.837
rfingers 7.12502
rthumb -37.7133 -251.96
lclavicle 3.97569e-014 4.8255e-014
lhumerus 30.9014 -23.0772 59.6801
lradius 29.7014
lwrist -4.11466
lhand -48.1163 -602.991
lfingers 7.12502
lthumb -20.7802 271.898
rfemur -74.2429 11.618 16.749
rtibia 126.269
rfoot -18.327 22.9784
rtoes -19.0452
lfemur -82.8124 10.9768 -6.37467
ltibia 127.976
lfoot -327.154 -28.4737
ltoes -44.6036
